# xmcd
#
# Track frame offsets:
#	150
#	12474
#	23421
#	36712
#	51197
#	84353
#	103739
#	121183
#	130980
#	143164
#	155249
#
# Disc length: 2258 seconds
#
# Revision: 2
# Processed by: cddbd v1.5.2PL0 Copyright (c) Steve Scherf et al.
# Submitted via: EZCDAudioConverter 3.1.0.1
#
DISCID=9308d00b
DTITLE=大AL - 發你個財財
DYEAR=1979
DGENRE=Pop
TTITLE0=大AL - 發你個財財
TTITLE1=大AL - 柴娃娃
TTITLE2=大AL - 提錢靠雙手
TTITLE3=大AL - 人生多姿采
TTITLE4=大AL and 斑斑 - 鳳閣恩仇未了情
TTITLE5=大AL - 我的歌
TTITLE6=大AL - 新蓮花落
TTITLE7=大AL - 我冇醉
TTITLE8=大AL - 捉鹿識脫角
TTITLE9=大AL - 等等等到慣
TTITLE10=大AL - 羅娜
EXTD=
EXTT0=
EXTT1=
EXTT2=
EXTT3=
EXTT4=
EXTT5=
EXTT6=
EXTT7=
EXTT8=
EXTT9=
EXTT10=
PLAYORDER=
